<svg xmlns="http://www.w3.org/2000/svg" xmlns:xlink="http://www.w3.org/1999/xlink" width="1000" height="1000" viewBox="0 0 1000 1000">
  <defs>
    <style>
      .cls-1 {
        clip-path: url(#clip-Web_1920_1);
      }

      .cls-2, .cls-7 {
        fill: #fff;
      }

      .cls-2 {
        stroke: #000;
        stroke-width: 25px;
      }

      .cls-3 {
        stroke-linecap: round;
        stroke-linejoin: round;
      }

      .cls-4, .cls-6 {
        stroke: none;
      }

      .cls-5 {
        fill: none;
      }

      .cls-6 {
        fill: #000;
      }
    </style>
    <clipPath id="clip-Web_1920_1">
      <rect width="1000" height="1000"/>
    </clipPath>
  </defs>
  <g id="Web_1920_1" data-name="Web 1920 – 1" class="cls-1">
    <rect class="cls-7" width="1000" height="1000"/>
    <g id="Сгруппировать_2" data-name="Сгруппировать 2" transform="translate(-2)">
      <g id="Эллипс_1" data-name="Эллипс 1" class="cls-2" transform="translate(2)">
        <circle class="cls-4" cx="500" cy="500" r="500"/>
        <circle class="cls-5" cx="500" cy="500" r="487.5"/>
      </g>
      <ellipse id="Эллипс_2" data-name="Эллипс 2" cx="165" cy="170" rx="165" ry="170" transform="translate(337 330)"/>
      <g id="Многоугольник_1" data-name="Многоугольник 1" class="cls-3" transform="translate(429 133)">
        <path class="cls-4" d="M 116.8021850585938 149.4364929199219 L 116.3734817504883 149.4219207763672 L 75.53709411621094 146.6883697509766 C 74.85853576660156 146.6429595947266 74.17927551269531 146.6202850341797 73.50000762939453 146.6202850341797 C 72.82073974609375 146.6202850341797 72.14151000976562 146.6429595947266 71.46338653564453 146.6883392333984 L 30.62653732299805 149.4219207763672 C 30.6142520904541 149.4219818115234 30.60165786743164 149.4220123291016 30.58942413330078 149.4220123291016 C 27.47002220153809 149.4221496582031 26.05422401428223 147.5955810546875 25.56936073303223 146.8084869384766 C 24.97021293640137 145.8358917236328 24.14459609985352 143.8478393554688 25.34700775146484 141.4603118896484 L 50.8590087890625 90.80251312255859 C 51.2684211730957 89.98963165283203 51.64133071899414 89.15851593017578 51.97650909423828 88.31192779541016 L 68.38626861572266 46.86863327026367 C 69.58353424072266 43.84492874145508 72.10409545898438 43.39342880249023 73.50000762939453 43.39342880249023 C 74.89591979980469 43.39342880249023 77.41645050048828 43.84492874145508 78.61371612548828 46.86863327026367 L 95.02359771728516 88.31224822998047 C 95.35880279541016 89.15878295898438 95.73159790039062 89.98960113525391 96.14100646972656 90.80254364013672 L 121.6530075073242 141.4603424072266 C 122.8549499511719 143.8469543457031 122.0293884277344 145.8348388671875 121.430305480957 146.8074035644531 C 120.9433898925781 147.5978393554688 119.5177459716797 149.4363098144531 116.8021850585938 149.4364929199219 Z"/>
        <path class="cls-6" d="M 73.49998474121094 67.90749359130859 L 63.59896850585938 92.91284942626953 C 63.12642669677734 94.10643005371094 62.60067749023438 95.27822113037109 62.02317810058594 96.42493438720703 L 42.02666473388672 136.1308441162109 L 70.62821960449219 134.2162628173828 C 72.54058837890625 134.0882568359375 74.45918273925781 134.0882263183594 76.37196350097656 134.21630859375 L 104.978385925293 136.1409606933594 L 84.97634124755859 96.42397308349609 C 84.39938354492188 95.27822113037109 83.87396240234375 94.10726928710938 83.40150451660156 92.91405487060547 L 73.49998474121094 67.90749359130859 M 73.5 30.89341735839844 C 80.36679077148438 30.89341735839844 87.23356628417969 34.68453979492188 90.23579406738281 42.26676940917969 L 106.6456756591797 83.71038818359375 C 106.8434677124023 84.20989227294922 107.0635070800781 84.70026397705078 107.3051300048828 85.18009948730469 L 132.817138671875 135.837890625 C 139.0849304199219 148.2834777832031 129.4421691894531 162.8247375488281 115.5385894775391 161.8940124511719 L 74.70221710205078 159.1604766845703 C 73.90163421630859 159.1068878173828 73.09837341308594 159.1068878173828 72.29776000976562 159.1604766845703 L 31.46142578125 161.8940124511719 C 17.55760192871094 162.8247222900391 7.915084838867188 148.2834320068359 14.18284606933594 135.837890625 L 39.69488525390625 85.18006134033203 C 39.93650817871094 84.70026397705078 40.15654754638672 84.20989227294922 40.35430145263672 83.71038818359375 L 56.76417541503906 42.26676940917969 C 59.76642608642578 34.68453979492188 66.63321685791016 30.89341735839844 73.5 30.89341735839844 Z"/>
      </g>
      <g id="Многоугольник_2" data-name="Многоугольник 2" class="cls-3" transform="translate(576 867) rotate(180)">
        <path class="cls-4" d="M 116.8021850585938 149.4364929199219 L 116.3734817504883 149.4219207763672 L 75.53709411621094 146.6883697509766 C 74.85853576660156 146.6429595947266 74.17927551269531 146.6202850341797 73.50000762939453 146.6202850341797 C 72.82073974609375 146.6202850341797 72.14151000976562 146.6429595947266 71.46338653564453 146.6883392333984 L 30.62653732299805 149.4219207763672 C 30.6142520904541 149.4219818115234 30.60165786743164 149.4220123291016 30.58942413330078 149.4220123291016 C 27.47002220153809 149.4221496582031 26.05422401428223 147.5955810546875 25.56936073303223 146.8084869384766 C 24.97021293640137 145.8358917236328 24.14459609985352 143.8478393554688 25.34700775146484 141.4603118896484 L 50.8590087890625 90.80251312255859 C 51.2684211730957 89.98963165283203 51.64133071899414 89.15851593017578 51.97650909423828 88.31192779541016 L 68.38626861572266 46.86863327026367 C 69.58353424072266 43.84492874145508 72.10409545898438 43.39342880249023 73.50000762939453 43.39342880249023 C 74.89591979980469 43.39342880249023 77.41645050048828 43.84492874145508 78.61371612548828 46.86863327026367 L 95.02359771728516 88.31224822998047 C 95.35880279541016 89.15878295898438 95.73159790039062 89.98960113525391 96.14100646972656 90.80254364013672 L 121.6530075073242 141.4603424072266 C 122.8549499511719 143.8469543457031 122.0293884277344 145.8348388671875 121.430305480957 146.8074035644531 C 120.9433898925781 147.5978393554688 119.5177459716797 149.4363098144531 116.8021850585938 149.4364929199219 Z"/>
        <path class="cls-6" d="M 73.49998474121094 67.90749359130859 L 63.59896850585938 92.91284942626953 C 63.12642669677734 94.10643005371094 62.60067749023438 95.27822113037109 62.02317810058594 96.42493438720703 L 42.02666473388672 136.1308441162109 L 70.62821960449219 134.2162628173828 C 72.54058837890625 134.0882568359375 74.45918273925781 134.0882263183594 76.37196350097656 134.21630859375 L 104.978385925293 136.1409606933594 L 84.97634124755859 96.42397308349609 C 84.39938354492188 95.27822113037109 83.87396240234375 94.10726928710938 83.40150451660156 92.91405487060547 L 73.49998474121094 67.90749359130859 M 73.5 30.89341735839844 C 80.36679077148438 30.89341735839844 87.23356628417969 34.68453979492188 90.23579406738281 42.26676940917969 L 106.6456756591797 83.71038818359375 C 106.8434677124023 84.20989227294922 107.0635070800781 84.70026397705078 107.3051300048828 85.18009948730469 L 132.817138671875 135.837890625 C 139.0849304199219 148.2834777832031 129.4421691894531 162.8247375488281 115.5385894775391 161.8940124511719 L 74.70221710205078 159.1604766845703 C 73.90163421630859 159.1068878173828 73.09837341308594 159.1068878173828 72.29776000976562 159.1604766845703 L 31.46142578125 161.8940124511719 C 17.55760192871094 162.8247222900391 7.915084838867188 148.2834320068359 14.18284606933594 135.837890625 L 39.69488525390625 85.18006134033203 C 39.93650817871094 84.70026397705078 40.15654754638672 84.20989227294922 40.35430145263672 83.71038818359375 L 56.76417541503906 42.26676940917969 C 59.76642608642578 34.68453979492188 66.63321685791016 30.89341735839844 73.5 30.89341735839844 Z"/>
      </g>
      <g id="Многоугольник_3" data-name="Многоугольник 3" class="cls-3" transform="translate(139.5 573.5) rotate(-90)">
        <path class="cls-4" d="M 116.8021850585938 149.4364929199219 L 116.3734817504883 149.4219207763672 L 75.53709411621094 146.6883697509766 C 74.85853576660156 146.6429595947266 74.17927551269531 146.6202850341797 73.50000762939453 146.6202850341797 C 72.82073974609375 146.6202850341797 72.14151000976562 146.6429595947266 71.46338653564453 146.6883392333984 L 30.62653732299805 149.4219207763672 C 30.6142520904541 149.4219818115234 30.60165786743164 149.4220123291016 30.58942413330078 149.4220123291016 C 27.47002220153809 149.4221496582031 26.05422401428223 147.5955810546875 25.56936073303223 146.8084869384766 C 24.97021293640137 145.8358917236328 24.14459609985352 143.8478393554688 25.34700775146484 141.4603118896484 L 50.8590087890625 90.80251312255859 C 51.2684211730957 89.98963165283203 51.64133071899414 89.15851593017578 51.97650909423828 88.31192779541016 L 68.38626861572266 46.86863327026367 C 69.58353424072266 43.84492874145508 72.10409545898438 43.39342880249023 73.50000762939453 43.39342880249023 C 74.89591979980469 43.39342880249023 77.41645050048828 43.84492874145508 78.61371612548828 46.86863327026367 L 95.02359771728516 88.31224822998047 C 95.35880279541016 89.15878295898438 95.73159790039062 89.98960113525391 96.14100646972656 90.80254364013672 L 121.6530075073242 141.4603424072266 C 122.8549499511719 143.8469543457031 122.0293884277344 145.8348388671875 121.430305480957 146.8074035644531 C 120.9433898925781 147.5978393554688 119.5177459716797 149.4363098144531 116.8021850585938 149.4364929199219 Z"/>
        <path class="cls-6" d="M 73.49998474121094 67.90749359130859 L 63.59896850585938 92.91284942626953 C 63.12642669677734 94.10643005371094 62.60067749023438 95.27822113037109 62.02317810058594 96.42493438720703 L 42.02666473388672 136.1308441162109 L 70.62821960449219 134.2162628173828 C 72.54058837890625 134.0882568359375 74.45918273925781 134.0882263183594 76.37196350097656 134.21630859375 L 104.978385925293 136.1409606933594 L 84.97634124755859 96.42397308349609 C 84.39938354492188 95.27822113037109 83.87396240234375 94.10726928710938 83.40150451660156 92.91405487060547 L 73.49998474121094 67.90749359130859 M 73.5 30.89341735839844 C 80.36679077148438 30.89341735839844 87.23356628417969 34.68453979492188 90.23579406738281 42.26676940917969 L 106.6456756591797 83.71038818359375 C 106.8434677124023 84.20989227294922 107.0635070800781 84.70026397705078 107.3051300048828 85.18009948730469 L 132.817138671875 135.837890625 C 139.0849304199219 148.2834777832031 129.4421691894531 162.8247375488281 115.5385894775391 161.8940124511719 L 74.70221710205078 159.1604766845703 C 73.90163421630859 159.1068878173828 73.09837341308594 159.1068878173828 72.29776000976562 159.1604766845703 L 31.46142578125 161.8940124511719 C 17.55760192871094 162.8247222900391 7.915084838867188 148.2834320068359 14.18284606933594 135.837890625 L 39.69488525390625 85.18006134033203 C 39.93650817871094 84.70026397705078 40.15654754638672 84.20989227294922 40.35430145263672 83.71038818359375 L 56.76417541503906 42.26676940917969 C 59.76642608642578 34.68453979492188 66.63321685791016 30.89341735839844 73.5 30.89341735839844 Z"/>
      </g>
      <g id="Многоугольник_4" data-name="Многоугольник 4" class="cls-3" transform="translate(864.5 426.5) rotate(90)">
        <path class="cls-4" d="M 116.8021850585938 149.4364929199219 L 116.3734817504883 149.4219207763672 L 75.53709411621094 146.6883697509766 C 74.85853576660156 146.6429595947266 74.17927551269531 146.6202850341797 73.50000762939453 146.6202850341797 C 72.82073974609375 146.6202850341797 72.14151000976562 146.6429595947266 71.46338653564453 146.6883392333984 L 30.62653732299805 149.4219207763672 C 30.6142520904541 149.4219818115234 30.60165786743164 149.4220123291016 30.58942413330078 149.4220123291016 C 27.47002220153809 149.4221496582031 26.05422401428223 147.5955810546875 25.56936073303223 146.8084869384766 C 24.97021293640137 145.8358917236328 24.14459609985352 143.8478393554688 25.34700775146484 141.4603118896484 L 50.8590087890625 90.80251312255859 C 51.2684211730957 89.98963165283203 51.64133071899414 89.15851593017578 51.97650909423828 88.31192779541016 L 68.38626861572266 46.86863327026367 C 69.58353424072266 43.84492874145508 72.10409545898438 43.39342880249023 73.50000762939453 43.39342880249023 C 74.89591979980469 43.39342880249023 77.41645050048828 43.84492874145508 78.61371612548828 46.86863327026367 L 95.02359771728516 88.31224822998047 C 95.35880279541016 89.15878295898438 95.73159790039062 89.98960113525391 96.14100646972656 90.80254364013672 L 121.6530075073242 141.4603424072266 C 122.8549499511719 143.8469543457031 122.0293884277344 145.8348388671875 121.430305480957 146.8074035644531 C 120.9433898925781 147.5978393554688 119.5177459716797 149.4363098144531 116.8021850585938 149.4364929199219 Z"/>
        <path class="cls-6" d="M 73.49998474121094 67.90749359130859 L 63.59896850585938 92.91284942626953 C 63.12642669677734 94.10643005371094 62.60067749023438 95.27822113037109 62.02317810058594 96.42493438720703 L 42.02666473388672 136.1308441162109 L 70.62821960449219 134.2162628173828 C 72.54058837890625 134.0882568359375 74.45918273925781 134.0882263183594 76.37196350097656 134.21630859375 L 104.978385925293 136.1409606933594 L 84.97634124755859 96.42397308349609 C 84.39938354492188 95.27822113037109 83.87396240234375 94.10726928710938 83.40150451660156 92.91405487060547 L 73.49998474121094 67.90749359130859 M 73.5 30.89341735839844 C 80.36679077148438 30.89341735839844 87.23356628417969 34.68453979492188 90.23579406738281 42.26676940917969 L 106.6456756591797 83.71038818359375 C 106.8434677124023 84.20989227294922 107.0635070800781 84.70026397705078 107.3051300048828 85.18009948730469 L 132.817138671875 135.837890625 C 139.0849304199219 148.2834777832031 129.4421691894531 162.8247375488281 115.5385894775391 161.8940124511719 L 74.70221710205078 159.1604766845703 C 73.90163421630859 159.1068878173828 73.09837341308594 159.1068878173828 72.29776000976562 159.1604766845703 L 31.46142578125 161.8940124511719 C 17.55760192871094 162.8247222900391 7.915084838867188 148.2834320068359 14.18284606933594 135.837890625 L 39.69488525390625 85.18006134033203 C 39.93650817871094 84.70026397705078 40.15654754638672 84.20989227294922 40.35430145263672 83.71038818359375 L 56.76417541503906 42.26676940917969 C 59.76642608642578 34.68453979492188 66.63321685791016 30.89341735839844 73.5 30.89341735839844 Z"/>
      </g>
      <g id="Многоугольник_5" data-name="Многоугольник 5" class="cls-3" transform="translate(706.51 187.045) rotate(45)">
        <path class="cls-4" d="M 116.8021850585938 149.4364929199219 L 116.3734817504883 149.4219207763672 L 75.53709411621094 146.6883697509766 C 74.85853576660156 146.6429595947266 74.17927551269531 146.6202850341797 73.50000762939453 146.6202850341797 C 72.82073974609375 146.6202850341797 72.14151000976562 146.6429595947266 71.46338653564453 146.6883392333984 L 30.62653732299805 149.4219207763672 C 30.6142520904541 149.4219818115234 30.60165786743164 149.4220123291016 30.58942413330078 149.4220123291016 C 27.47002220153809 149.4221496582031 26.05422401428223 147.5955810546875 25.56936073303223 146.8084869384766 C 24.97021293640137 145.8358917236328 24.14459609985352 143.8478393554688 25.34700775146484 141.4603118896484 L 50.8590087890625 90.80251312255859 C 51.2684211730957 89.98963165283203 51.64133071899414 89.15851593017578 51.97650909423828 88.31192779541016 L 68.38626861572266 46.86863327026367 C 69.58353424072266 43.84492874145508 72.10409545898438 43.39342880249023 73.50000762939453 43.39342880249023 C 74.89591979980469 43.39342880249023 77.41645050048828 43.84492874145508 78.61371612548828 46.86863327026367 L 95.02359771728516 88.31224822998047 C 95.35880279541016 89.15878295898438 95.73159790039062 89.98960113525391 96.14100646972656 90.80254364013672 L 121.6530075073242 141.4603424072266 C 122.8549499511719 143.8469543457031 122.0293884277344 145.8348388671875 121.430305480957 146.8074035644531 C 120.9433898925781 147.5978393554688 119.5177459716797 149.4363098144531 116.8021850585938 149.4364929199219 Z"/>
        <path class="cls-6" d="M 73.49998474121094 67.90749359130859 L 63.59896850585938 92.91284942626953 C 63.12642669677734 94.10643005371094 62.60067749023438 95.27822113037109 62.02317810058594 96.42493438720703 L 42.02666473388672 136.1308441162109 L 70.62821960449219 134.2162628173828 C 72.54058837890625 134.0882568359375 74.45918273925781 134.0882263183594 76.37196350097656 134.21630859375 L 104.978385925293 136.1409606933594 L 84.97634124755859 96.42397308349609 C 84.39938354492188 95.27822113037109 83.87396240234375 94.10726928710938 83.40150451660156 92.91405487060547 L 73.49998474121094 67.90749359130859 M 73.5 30.89341735839844 C 80.36679077148438 30.89341735839844 87.23356628417969 34.68453979492188 90.23579406738281 42.26676940917969 L 106.6456756591797 83.71038818359375 C 106.8434677124023 84.20989227294922 107.0635070800781 84.70026397705078 107.3051300048828 85.18009948730469 L 132.817138671875 135.837890625 C 139.0849304199219 148.2834777832031 129.4421691894531 162.8247375488281 115.5385894775391 161.8940124511719 L 74.70221710205078 159.1604766845703 C 73.90163421630859 159.1068878173828 73.09837341308594 159.1068878173828 72.29776000976562 159.1604766845703 L 31.46142578125 161.8940124511719 C 17.55760192871094 162.8247222900391 7.915084838867188 148.2834320068359 14.18284606933594 135.837890625 L 39.69488525390625 85.18006134033203 C 39.93650817871094 84.70026397705078 40.15654754638672 84.20989227294922 40.35430145263672 83.71038818359375 L 56.76417541503906 42.26676940917969 C 59.76642608642578 34.68453979492188 66.63321685791016 30.89341735839844 73.5 30.89341735839844 Z"/>
      </g>
      <g id="Многоугольник_6" data-name="Многоугольник 6" class="cls-3" transform="translate(194.545 290.99) rotate(-45)">
        <path class="cls-4" d="M 116.8021850585938 149.4364929199219 L 116.3734817504883 149.4219207763672 L 75.53709411621094 146.6883697509766 C 74.85853576660156 146.6429595947266 74.17927551269531 146.6202850341797 73.50000762939453 146.6202850341797 C 72.82073974609375 146.6202850341797 72.14151000976562 146.6429595947266 71.46338653564453 146.6883392333984 L 30.62653732299805 149.4219207763672 C 30.6142520904541 149.4219818115234 30.60165786743164 149.4220123291016 30.58942413330078 149.4220123291016 C 27.47002220153809 149.4221496582031 26.05422401428223 147.5955810546875 25.56936073303223 146.8084869384766 C 24.97021293640137 145.8358917236328 24.14459609985352 143.8478393554688 25.34700775146484 141.4603118896484 L 50.8590087890625 90.80251312255859 C 51.2684211730957 89.98963165283203 51.64133071899414 89.15851593017578 51.97650909423828 88.31192779541016 L 68.38626861572266 46.86863327026367 C 69.58353424072266 43.84492874145508 72.10409545898438 43.39342880249023 73.50000762939453 43.39342880249023 C 74.89591979980469 43.39342880249023 77.41645050048828 43.84492874145508 78.61371612548828 46.86863327026367 L 95.02359771728516 88.31224822998047 C 95.35880279541016 89.15878295898438 95.73159790039062 89.98960113525391 96.14100646972656 90.80254364013672 L 121.6530075073242 141.4603424072266 C 122.8549499511719 143.8469543457031 122.0293884277344 145.8348388671875 121.430305480957 146.8074035644531 C 120.9433898925781 147.5978393554688 119.5177459716797 149.4363098144531 116.8021850585938 149.4364929199219 Z"/>
        <path class="cls-6" d="M 73.49998474121094 67.90749359130859 L 63.59896850585938 92.91284942626953 C 63.12642669677734 94.10643005371094 62.60067749023438 95.27822113037109 62.02317810058594 96.42493438720703 L 42.02666473388672 136.1308441162109 L 70.62821960449219 134.2162628173828 C 72.54058837890625 134.0882568359375 74.45918273925781 134.0882263183594 76.37196350097656 134.21630859375 L 104.978385925293 136.1409606933594 L 84.97634124755859 96.42397308349609 C 84.39938354492188 95.27822113037109 83.87396240234375 94.10726928710938 83.40150451660156 92.91405487060547 L 73.49998474121094 67.90749359130859 M 73.5 30.89341735839844 C 80.36679077148438 30.89341735839844 87.23356628417969 34.68453979492188 90.23579406738281 42.26676940917969 L 106.6456756591797 83.71038818359375 C 106.8434677124023 84.20989227294922 107.0635070800781 84.70026397705078 107.3051300048828 85.18009948730469 L 132.817138671875 135.837890625 C 139.0849304199219 148.2834777832031 129.4421691894531 162.8247375488281 115.5385894775391 161.8940124511719 L 74.70221710205078 159.1604766845703 C 73.90163421630859 159.1068878173828 73.09837341308594 159.1068878173828 72.29776000976562 159.1604766845703 L 31.46142578125 161.8940124511719 C 17.55760192871094 162.8247222900391 7.915084838867188 148.2834320068359 14.18284606933594 135.837890625 L 39.69488525390625 85.18006134033203 C 39.93650817871094 84.70026397705078 40.15654754638672 84.20989227294922 40.35430145263672 83.71038818359375 L 56.76417541503906 42.26676940917969 C 59.76642608642578 34.68453979492188 66.63321685791016 30.89341735839844 73.5 30.89341735839844 Z"/>
      </g>
      <g id="Многоугольник_7" data-name="Многоугольник 7" class="cls-3" transform="translate(298.49 812.955) rotate(-135)">
        <path class="cls-4" d="M 116.8021850585938 149.4364929199219 L 116.3734817504883 149.4219207763672 L 75.53709411621094 146.6883697509766 C 74.85853576660156 146.6429595947266 74.17927551269531 146.6202850341797 73.50000762939453 146.6202850341797 C 72.82073974609375 146.6202850341797 72.14151000976562 146.6429595947266 71.46338653564453 146.6883392333984 L 30.62653732299805 149.4219207763672 C 30.6142520904541 149.4219818115234 30.60165786743164 149.4220123291016 30.58942413330078 149.4220123291016 C 27.47002220153809 149.4221496582031 26.05422401428223 147.5955810546875 25.56936073303223 146.8084869384766 C 24.97021293640137 145.8358917236328 24.14459609985352 143.8478393554688 25.34700775146484 141.4603118896484 L 50.8590087890625 90.80251312255859 C 51.2684211730957 89.98963165283203 51.64133071899414 89.15851593017578 51.97650909423828 88.31192779541016 L 68.38626861572266 46.86863327026367 C 69.58353424072266 43.84492874145508 72.10409545898438 43.39342880249023 73.50000762939453 43.39342880249023 C 74.89591979980469 43.39342880249023 77.41645050048828 43.84492874145508 78.61371612548828 46.86863327026367 L 95.02359771728516 88.31224822998047 C 95.35880279541016 89.15878295898438 95.73159790039062 89.98960113525391 96.14100646972656 90.80254364013672 L 121.6530075073242 141.4603424072266 C 122.8549499511719 143.8469543457031 122.0293884277344 145.8348388671875 121.430305480957 146.8074035644531 C 120.9433898925781 147.5978393554688 119.5177459716797 149.4363098144531 116.8021850585938 149.4364929199219 Z"/>
        <path class="cls-6" d="M 73.49998474121094 67.90749359130859 L 63.59896850585938 92.91284942626953 C 63.12642669677734 94.10643005371094 62.60067749023438 95.27822113037109 62.02317810058594 96.42493438720703 L 42.02666473388672 136.1308441162109 L 70.62821960449219 134.2162628173828 C 72.54058837890625 134.0882568359375 74.45918273925781 134.0882263183594 76.37196350097656 134.21630859375 L 104.978385925293 136.1409606933594 L 84.97634124755859 96.42397308349609 C 84.39938354492188 95.27822113037109 83.87396240234375 94.10726928710938 83.40150451660156 92.91405487060547 L 73.49998474121094 67.90749359130859 M 73.5 30.89341735839844 C 80.36679077148438 30.89341735839844 87.23356628417969 34.68453979492188 90.23579406738281 42.26676940917969 L 106.6456756591797 83.71038818359375 C 106.8434677124023 84.20989227294922 107.0635070800781 84.70026397705078 107.3051300048828 85.18009948730469 L 132.817138671875 135.837890625 C 139.0849304199219 148.2834777832031 129.4421691894531 162.8247375488281 115.5385894775391 161.8940124511719 L 74.70221710205078 159.1604766845703 C 73.90163421630859 159.1068878173828 73.09837341308594 159.1068878173828 72.29776000976562 159.1604766845703 L 31.46142578125 161.8940124511719 C 17.55760192871094 162.8247222900391 7.915084838867188 148.2834320068359 14.18284606933594 135.837890625 L 39.69488525390625 85.18006134033203 C 39.93650817871094 84.70026397705078 40.15654754638672 84.20989227294922 40.35430145263672 83.71038818359375 L 56.76417541503906 42.26676940917969 C 59.76642608642578 34.68453979492188 66.63321685791016 30.89341735839844 73.5 30.89341735839844 Z"/>
      </g>
      <g id="Многоугольник_8" data-name="Многоугольник 8" class="cls-3" transform="translate(810.455 709.01) rotate(135)">
        <path class="cls-4" d="M 116.8021850585938 149.4364929199219 L 116.3734817504883 149.4219207763672 L 75.53709411621094 146.6883697509766 C 74.85853576660156 146.6429595947266 74.17927551269531 146.6202850341797 73.50000762939453 146.6202850341797 C 72.82073974609375 146.6202850341797 72.14151000976562 146.6429595947266 71.46338653564453 146.6883392333984 L 30.62653732299805 149.4219207763672 C 30.6142520904541 149.4219818115234 30.60165786743164 149.4220123291016 30.58942413330078 149.4220123291016 C 27.47002220153809 149.4221496582031 26.05422401428223 147.5955810546875 25.56936073303223 146.8084869384766 C 24.97021293640137 145.8358917236328 24.14459609985352 143.8478393554688 25.34700775146484 141.4603118896484 L 50.8590087890625 90.80251312255859 C 51.2684211730957 89.98963165283203 51.64133071899414 89.15851593017578 51.97650909423828 88.31192779541016 L 68.38626861572266 46.86863327026367 C 69.58353424072266 43.84492874145508 72.10409545898438 43.39342880249023 73.50000762939453 43.39342880249023 C 74.89591979980469 43.39342880249023 77.41645050048828 43.84492874145508 78.61371612548828 46.86863327026367 L 95.02359771728516 88.31224822998047 C 95.35880279541016 89.15878295898438 95.73159790039062 89.98960113525391 96.14100646972656 90.80254364013672 L 121.6530075073242 141.4603424072266 C 122.8549499511719 143.8469543457031 122.0293884277344 145.8348388671875 121.430305480957 146.8074035644531 C 120.9433898925781 147.5978393554688 119.5177459716797 149.4363098144531 116.8021850585938 149.4364929199219 Z"/>
        <path class="cls-6" d="M 73.49998474121094 67.90749359130859 L 63.59896850585938 92.91284942626953 C 63.12642669677734 94.10643005371094 62.60067749023438 95.27822113037109 62.02317810058594 96.42493438720703 L 42.02666473388672 136.1308441162109 L 70.62821960449219 134.2162628173828 C 72.54058837890625 134.0882568359375 74.45918273925781 134.0882263183594 76.37196350097656 134.21630859375 L 104.978385925293 136.1409606933594 L 84.97634124755859 96.42397308349609 C 84.39938354492188 95.27822113037109 83.87396240234375 94.10726928710938 83.40150451660156 92.91405487060547 L 73.49998474121094 67.90749359130859 M 73.5 30.89341735839844 C 80.36679077148438 30.89341735839844 87.23356628417969 34.68453979492188 90.23579406738281 42.26676940917969 L 106.6456756591797 83.71038818359375 C 106.8434677124023 84.20989227294922 107.0635070800781 84.70026397705078 107.3051300048828 85.18009948730469 L 132.817138671875 135.837890625 C 139.0849304199219 148.2834777832031 129.4421691894531 162.8247375488281 115.5385894775391 161.8940124511719 L 74.70221710205078 159.1604766845703 C 73.90163421630859 159.1068878173828 73.09837341308594 159.1068878173828 72.29776000976562 159.1604766845703 L 31.46142578125 161.8940124511719 C 17.55760192871094 162.8247222900391 7.915084838867188 148.2834320068359 14.18284606933594 135.837890625 L 39.69488525390625 85.18006134033203 C 39.93650817871094 84.70026397705078 40.15654754638672 84.20989227294922 40.35430145263672 83.71038818359375 L 56.76417541503906 42.26676940917969 C 59.76642608642578 34.68453979492188 66.63321685791016 30.89341735839844 73.5 30.89341735839844 Z"/>
      </g>
    </g>
  </g>
</svg>
