<?xml version="1.0" encoding="utf-8"?>
<!-- Generator: Adobe Illustrator 25.4.1, SVG Export Plug-In . SVG Version: 6.00 Build 0)  -->
<svg version="1.1"
	 id="svg2" xmlns:cc="http://creativecommons.org/ns#" xmlns:dc="http://purl.org/dc/elements/1.1/" xmlns:rdf="http://www.w3.org/1999/02/22-rdf-syntax-ns#" xmlns:svg="http://www.w3.org/2000/svg"
	 xmlns="http://www.w3.org/2000/svg" xmlns:xlink="http://www.w3.org/1999/xlink" x="0px" y="0px" viewBox="0 0 965.1 965.1"
	 style="enable-background:new 0 0 965.1 965.1;" xml:space="preserve">
<style type="text/css">
	.st0{clip-path:url(#SVGID_00000149340585389494466550000004826102838174731188_);}
	.st1{fill:none;stroke:#000000;stroke-width:16;stroke-miterlimit:13.3333;}
	.st2{stroke:#000000;stroke-width:16;stroke-miterlimit:13.3333;}
	.st3{clip-path:url(#SVGID_00000117640018116789790690000001003842261972246702_);}
	.st4{fill:#FFFFFF;}
	.st5{fill:none;stroke:#000000;stroke-width:2.6667;stroke-miterlimit:13.3333;}
	.st6{fill:url(#path78_00000025428007707558062540000015442065364809724032_);}
	.st7{clip-path:url(#SVGID_00000132057709410540634730000010605948032533718664_);}
	.st8{fill:#1A1A1A;}
	.st9{clip-path:url(#SVGID_00000034068429352642627060000016251928843649707189_);}
	.st10{fill:#CCCCCC;}
	.st11{fill:#333333;}
</style>
<g id="g10" transform="matrix(1.3333333,0,0,-1.3333333,0,1365.3333)">
	<g id="g12">
		<g>
			<defs>
				<rect id="SVGID_1_" x="-520.1" y="-21" width="1706.7" height="1365.3"/>
			</defs>
			<clipPath id="SVGID_00000125561538646293379360000016631646376104626615_">
				<use xlink:href="#SVGID_1_"  style="overflow:visible;"/>
			</clipPath>
			<g id="g14" style="clip-path:url(#SVGID_00000125561538646293379360000016631646376104626615_);">
				<g id="g20" transform="translate(1012.2805,604.5049)">
					<path id="path22" d="M-306.8,149.7c51.1-188.9-60.6-383.5-249.5-434.5c-188.9-51.1-383.5,60.6-434.5,249.5
						c-51.1,188.9,60.6,383.5,249.5,434.5S-357.9,338.6-306.8,149.7"/>
				</g>
				<g id="g24" transform="translate(1012.2805,604.5049)">
					<path id="path26" class="st1" d="M-306.8,149.7c51.1-188.9-60.6-383.5-249.5-434.5c-188.9-51.1-383.5,60.6-434.5,249.5
						c-51.1,188.9,60.6,383.5,249.5,434.5S-357.9,338.6-306.8,149.7z"/>
				</g>
				<g id="g28" transform="translate(366.8908,384.9982)">
					<path id="path30" class="st2" d="M-306.8,149.7c-0.9,4.7-1.5,12,0.6,20.4c4.6,18.3,18.9,27.8,22.7,30.1"/>
				</g>
				<g id="g32" transform="translate(466.216,454.7922)">
					<path id="path34" class="st2" d="M-306.8,149.7l-22,21.5"/>
				</g>
				<g id="g36" transform="translate(408.9569,447.9925)">
					<path id="path38" class="st2" d="M-306.8,149.7c-2.3-1.4-9.5-6.4-12.9-16.1c-4.2-12,0.7-22.3,1.7-24.2"/>
				</g>
			</g>
		</g>
	</g>
	<g id="g40">
		<g>
			<defs>
				<rect id="SVGID_00000157990767874909757080000005346874610572813994_" x="-520.1" y="-21" width="1706.7" height="1365.3"/>
			</defs>
			<clipPath id="SVGID_00000026842640051781928160000016892291128238732674_">
				<use xlink:href="#SVGID_00000157990767874909757080000005346874610572813994_"  style="overflow:visible;"/>
			</clipPath>
			<g id="g42" style="clip-path:url(#SVGID_00000026842640051781928160000016892291128238732674_);">
				<g id="g48" transform="translate(327.1557,427.1183)">
					<path id="path50" d="M-306.8,149.7c1.5-7.6,3.4-15.7,5.9-24.3c3.8-12.8,8.2-24.1,12.6-33.8c28.7,22.4,61.1,45.6,97.5,68.6
						c34,21.5,66.6,39.7,97.2,55.3c-1.7,14.3-4,29.3-7.1,44.9c-1.4,7.1-2.9,14-4.4,20.8c-36.1-23.6-72.2-47.2-108.4-70.8
						C-244.5,190.1-275.7,169.9-306.8,149.7"/>
				</g>
				<g id="g52" transform="translate(327.1557,427.1183)">
					<path id="path54" class="st4" d="M-306.8,149.7c1.5-7.6,3.4-15.7,5.9-24.3c3.8-12.8,8.2-24.1,12.6-33.8
						c28.7,22.4,61.1,45.6,97.5,68.6c34,21.5,66.6,39.7,97.2,55.3c-1.7,14.3-4,29.3-7.1,44.9c-1.4,7.1-2.9,14-4.4,20.8
						c-36.1-23.6-72.2-47.2-108.4-70.8C-244.5,190.1-275.7,169.9-306.8,149.7"/>
				</g>
				<g id="g56" transform="translate(327.1557,427.1183)">
					<path id="path58" class="st5" d="M-306.8,149.7c1.5-7.6,3.4-15.7,5.9-24.3c3.8-12.8,8.2-24.1,12.6-33.8
						c28.7,22.4,61.1,45.6,97.5,68.6c34,21.5,66.6,39.7,97.2,55.3c-1.7,14.3-4,29.3-7.1,44.9c-1.4,7.1-2.9,14-4.4,20.8
						c-36.1-23.6-72.2-47.2-108.4-70.8C-244.5,190.1-275.7,169.9-306.8,149.7z"/>
				</g>
			</g>
		</g>
	</g>
	<g id="g60">
		<g id="g62">
			<g id="g68">
				<g id="g70">
					
						<linearGradient id="path78_00000134226448922503489440000000253959654062272384_" gradientUnits="userSpaceOnUse" x1="-147.7748" y1="276.8583" x2="-146.7748" y2="276.8583" gradientTransform="matrix(220.4791 0 0 -220.4791 32827.4336 61749.0664)">
						<stop  offset="0" style="stop-color:#FFFFFF"/>
						<stop  offset="1" style="stop-color:#000000"/>
					</linearGradient>
					<path id="path78" style="fill:url(#path78_00000134226448922503489440000000253959654062272384_);" d="M313.7,714
						c-22.1-58.5-44.7-114.9-67.6-169.4l0,0c3.7-20.5,7.4-41,11.1-61.6l0,0C308.7,598,360.1,713,411.5,827.9l0,0
						c-6.9,34.7-13.8,69.5-20.7,104.2l0,0C367.6,861.5,342,788.7,313.7,714"/>
				</g>
			</g>
		</g>
	</g>
	<g id="g80">
		<g>
			<defs>
				<rect id="SVGID_00000101077397439671368390000004229911470048763308_" x="-520.1" y="-21" width="1706.7" height="1365.3"/>
			</defs>
			<clipPath id="SVGID_00000041998311096247744030000006754339903993038504_">
				<use xlink:href="#SVGID_00000101077397439671368390000004229911470048763308_"  style="overflow:visible;"/>
			</clipPath>
			<g id="g82" style="clip-path:url(#SVGID_00000041998311096247744030000006754339903993038504_);">
				<g id="g88" transform="translate(783.9062,347.6585)">
					<path id="path90" class="st8" d="M-306.8,149.7c-10.3,35.3-20.9,44.4-29.3,45.3c-6,0.7-12-2.8-14.1,0
						c-2.2,2.8,2.6,8.1,11.1,24.2c4.6,8.6,8.5,17.6,12.8,26.4c45.5,112.5,91.1,225,136.6,337.4c9.7-9.3,19.3-18.6,29-27.9
						C-209.4,419.9-258.1,284.8-306.8,149.7"/>
				</g>
			</g>
		</g>
	</g>
	<g id="g92">
		<g>
			<defs>
				<rect id="SVGID_00000098919760177466866870000002808388948029542811_" x="-520.1" y="-21" width="1706.7" height="1365.3"/>
			</defs>
			<clipPath id="SVGID_00000060004037679612534700000011375339700657879229_">
				<use xlink:href="#SVGID_00000098919760177466866870000002808388948029542811_"  style="overflow:visible;"/>
			</clipPath>
			<g id="g94" style="clip-path:url(#SVGID_00000060004037679612534700000011375339700657879229_);">
				<g id="g100" transform="translate(526.2845,562.6481)">
					<path id="path102" class="st10" d="M-306.8,149.7c-8.3,56.6-15.6,112.2-22.2,166.7c8.3,11.1,16.6,22.2,25,33.2
						c19.8-124.5,39.7-248.9,59.5-373.4c-8.2-18.6-16.3-37.2-24.5-55.9C-282.6-5.6-295.3,70.9-306.8,149.7"/>
				</g>
				<g id="g104" transform="translate(740.4875,392.9489)">
					<path id="path106" class="st11" d="M-306.8,149.7c-20.5,107.5-41,215-61.5,322.4c6.2,22.4,12.4,44.7,18.6,67.1l86.2-434.8
						C-277.9,119.5-292.3,134.6-306.8,149.7"/>
				</g>
				<g id="g108" transform="translate(535.9503,492.132)">
					<path id="path110" class="st4" d="M-306.8,149.7c-1,5.4-1.9,10.8-2.9,16.2"/>
				</g>
			</g>
		</g>
	</g>
</g>
</svg>
